<svg width="32" height="32" viewBox="0 0 32 32" fill="none" xmlns="http://www.w3.org/2000/svg">
<g clip-path="url(#clip0_3_2763)">
<mask id="mask0_3_2763" style="mask-type:luminance" maskUnits="userSpaceOnUse" x="-1" y="0" width="254" height="226">
<path d="M252.385 0H-0.246826V225.352H252.385V0Z" fill="white"/>
</mask>
<g mask="url(#mask0_3_2763)">
<path d="M23.82 8.28821C22.3835 7.6291 20.8431 7.14349 19.2325 6.86536C19.2032 6.86 19.1739 6.87341 19.1588 6.90024C18.9607 7.25259 18.7413 7.71226 18.5876 8.07356C16.8553 7.81422 15.1319 7.81422 13.4351 8.07356C13.2814 7.70423 13.054 7.25259 12.855 6.90024C12.8399 6.87431 12.8106 6.86089 12.7813 6.86536C11.1716 7.1426 9.63121 7.62821 8.19385 8.28821C8.18141 8.29357 8.17074 8.30253 8.16367 8.31414C5.24186 12.6793 4.44145 16.9371 4.8341 21.1421C4.83588 21.1627 4.84743 21.1824 4.86342 21.1949C6.79115 22.6106 8.65848 23.47 10.4911 24.0397C10.5205 24.0486 10.5515 24.0379 10.5702 24.0137C11.0037 23.4217 11.3902 22.7975 11.7215 22.1411C11.741 22.1026 11.7224 22.057 11.6824 22.0418C11.0695 21.8093 10.4858 21.5258 9.92436 21.2038C9.87995 21.1779 9.8764 21.1144 9.91725 21.084C10.0354 20.9954 10.1536 20.9033 10.2664 20.8103C10.2868 20.7933 10.3152 20.7898 10.3392 20.8005C14.0277 22.4845 18.0208 22.4845 21.6657 20.8005C21.6897 20.7889 21.7182 20.7925 21.7395 20.8094C21.8523 20.9024 21.9705 20.9954 22.0895 21.084C22.1303 21.1144 22.1277 21.1779 22.0833 21.2038C21.5218 21.532 20.9382 21.8093 20.3243 22.0409C20.2844 22.0561 20.2666 22.1026 20.2861 22.1411C20.6246 22.7966 21.011 23.4208 21.4365 24.0129C21.4543 24.0379 21.4863 24.0486 21.5156 24.0397C23.3571 23.47 25.2245 22.6106 27.1522 21.1949C27.1691 21.1824 27.1797 21.1636 27.1815 21.143C27.6514 16.2815 26.3944 12.0586 23.8493 8.31503C23.8431 8.30253 23.8324 8.29357 23.82 8.28821ZM12.2723 18.5817C11.1618 18.5817 10.2468 17.5622 10.2468 16.3102C10.2468 15.0581 11.1441 14.0386 12.2723 14.0386C13.4094 14.0386 14.3155 15.0671 14.2977 16.3102C14.2977 17.5622 13.4005 18.5817 12.2723 18.5817ZM19.7611 18.5817C18.6507 18.5817 17.7357 17.5622 17.7357 16.3102C17.7357 15.0581 18.6329 14.0386 19.7611 14.0386C20.8982 14.0386 21.8043 15.0671 21.7866 16.3102C21.7866 17.5622 20.8982 18.5817 19.7611 18.5817Z" fill="#F8F8F8"/>
</g>
</g>
<defs>
<clipPath id="clip0_3_2763">
<rect width="32" height="32" fill="white"/>
</clipPath>
</defs>
</svg>
