<svg width="32" height="32" viewBox="0 0 32 32" fill="none" xmlns="http://www.w3.org/2000/svg">
<path d="M17.3186 16.0001C17.3186 19.228 14.7197 21.8448 11.5139 21.8448C8.30812 21.8448 5.70898 19.228 5.70898 16.0001C5.70898 12.7721 8.30792 10.1552 11.5139 10.1552C14.7199 10.1552 17.3186 12.7721 17.3186 16.0001Z" fill="#F8F8F8"/>
<path d="M23.6865 16.0001C23.6865 19.0385 22.387 21.5026 20.7841 21.5026C19.1811 21.5026 17.8816 19.0385 17.8816 16.0001C17.8816 12.9617 19.1809 10.4976 20.7839 10.4976C22.3868 10.4976 23.6863 12.9609 23.6863 16.0001" fill="#F8F8F8"/>
<path d="M26.2912 16.0003C26.2912 18.722 25.8342 20.9297 25.2704 20.9297C24.7065 20.9297 24.2498 18.7226 24.2498 16.0003C24.2498 13.2781 24.7067 11.0709 25.2704 11.0709C25.834 11.0709 26.2912 13.2779 26.2912 16.0003Z" fill="#F8F8F8"/>
</svg>
