<svg width="32" height="32" viewBox="0 0 32 32" fill="none" xmlns="http://www.w3.org/2000/svg">
<g clip-path="url(#clip0_3_2755)">
<path fill-rule="evenodd" clip-rule="evenodd" d="M9.02595 15.1061C13.0321 13.3607 15.7035 12.21 17.0401 11.6541C20.8565 10.0667 21.6495 9.791 22.1663 9.7819C22.28 9.77989 22.5342 9.80807 22.6989 9.94167C22.8379 10.0545 22.8761 10.2069 22.8944 10.3138C22.9127 10.4208 22.9355 10.6644 22.9174 10.8548C22.7106 13.0278 21.8157 18.301 21.3605 20.7348C21.1679 21.7646 20.7886 22.1099 20.4213 22.1437C19.6233 22.2171 19.0173 21.6163 18.2444 21.1096C17.0349 20.3168 16.3516 19.8232 15.1776 19.0495C13.8208 18.1554 14.7003 17.664 15.4736 16.8609C15.6759 16.6507 19.1921 13.4525 19.2601 13.1624C19.2687 13.1261 19.2765 12.9909 19.1962 12.9194C19.1158 12.848 18.9973 12.8724 18.9117 12.8919C18.7904 12.9194 16.8582 14.1965 13.1151 16.7232C12.5667 17.0998 12.0699 17.2833 11.6248 17.2736C11.1342 17.263 10.1903 16.9962 9.48866 16.7681C8.62805 16.4884 7.94405 16.3405 8.00362 15.8654C8.03464 15.6179 8.37542 15.3648 9.02595 15.1061Z" fill="#F8F8F8"/>
</g>
<defs>
<clipPath id="clip0_3_2755">
<rect width="16" height="16" fill="white" transform="translate(8 7.96582)"/>
</clipPath>
</defs>
</svg>
